<mxfile host="app.diagrams.net" agent="Mozilla/5.0 (Windows NT 10.0; Win64; x64) AppleWebKit/537.36 (KHTML, like Gecko) Chrome/131.0.0.0 Safari/537.36" version="24.8.3">
  <diagram id="C5RBs43oDa-KdzZeNtuy" name="Page-1">
    <mxGraphModel dx="1195" dy="615" grid="1" gridSize="10" guides="1" tooltips="1" connect="1" arrows="1" fold="1" page="1" pageScale="1" pageWidth="827" pageHeight="1169" math="0" shadow="0">
      <root>
        <mxCell id="WIyWlLk6GJQsqaUBKTNV-0" />
        <mxCell id="WIyWlLk6GJQsqaUBKTNV-1" parent="WIyWlLk6GJQsqaUBKTNV-0" />
        <mxCell id="WIyWlLk6GJQsqaUBKTNV-2" value="" style="rounded=0;html=1;jettySize=auto;orthogonalLoop=1;fontSize=11;endArrow=block;endFill=0;endSize=8;strokeWidth=1;shadow=0;labelBackgroundColor=none;edgeStyle=orthogonalEdgeStyle;" parent="WIyWlLk6GJQsqaUBKTNV-1" source="WIyWlLk6GJQsqaUBKTNV-3" target="WIyWlLk6GJQsqaUBKTNV-6" edge="1">
          <mxGeometry relative="1" as="geometry" />
        </mxCell>
        <mxCell id="WIyWlLk6GJQsqaUBKTNV-3" value="ESP8266 start" style="rounded=1;whiteSpace=wrap;html=1;fontSize=12;glass=0;strokeWidth=1;shadow=0;" parent="WIyWlLk6GJQsqaUBKTNV-1" vertex="1">
          <mxGeometry x="165" y="10" width="120" height="40" as="geometry" />
        </mxCell>
        <mxCell id="WIyWlLk6GJQsqaUBKTNV-5" value="No" style="edgeStyle=orthogonalEdgeStyle;rounded=0;html=1;jettySize=auto;orthogonalLoop=1;fontSize=11;endArrow=block;endFill=0;endSize=8;strokeWidth=1;shadow=0;labelBackgroundColor=none;" parent="WIyWlLk6GJQsqaUBKTNV-1" source="WIyWlLk6GJQsqaUBKTNV-6" edge="1">
          <mxGeometry x="-0.9268" y="12" relative="1" as="geometry">
            <mxPoint y="-1" as="offset" />
            <mxPoint x="600" y="950" as="targetPoint" />
          </mxGeometry>
        </mxCell>
        <mxCell id="ev5XQa3KlGmRPrC_pve0-5" value="" style="edgeStyle=orthogonalEdgeStyle;rounded=0;orthogonalLoop=1;jettySize=auto;html=1;" edge="1" parent="WIyWlLk6GJQsqaUBKTNV-1" source="WIyWlLk6GJQsqaUBKTNV-6" target="ev5XQa3KlGmRPrC_pve0-4">
          <mxGeometry relative="1" as="geometry" />
        </mxCell>
        <mxCell id="WIyWlLk6GJQsqaUBKTNV-6" value="digitalRead(pin 14)&lt;div&gt;== LOW&lt;/div&gt;" style="rhombus;whiteSpace=wrap;html=1;shadow=0;fontFamily=Helvetica;fontSize=12;align=center;strokeWidth=1;spacing=6;spacingTop=-4;" parent="WIyWlLk6GJQsqaUBKTNV-1" vertex="1">
          <mxGeometry x="147.51" y="80" width="155" height="65" as="geometry" />
        </mxCell>
        <mxCell id="WIyWlLk6GJQsqaUBKTNV-8" value="No" style="rounded=0;html=1;jettySize=auto;orthogonalLoop=1;fontSize=11;endArrow=block;endFill=0;endSize=8;strokeWidth=1;shadow=0;labelBackgroundColor=none;edgeStyle=orthogonalEdgeStyle;" parent="WIyWlLk6GJQsqaUBKTNV-1" source="WIyWlLk6GJQsqaUBKTNV-10" target="WIyWlLk6GJQsqaUBKTNV-11" edge="1">
          <mxGeometry x="0.3333" y="20" relative="1" as="geometry">
            <mxPoint as="offset" />
          </mxGeometry>
        </mxCell>
        <mxCell id="WIyWlLk6GJQsqaUBKTNV-9" value="Yes" style="edgeStyle=orthogonalEdgeStyle;rounded=0;html=1;jettySize=auto;orthogonalLoop=1;fontSize=11;endArrow=block;endFill=0;endSize=8;strokeWidth=1;shadow=0;labelBackgroundColor=none;" parent="WIyWlLk6GJQsqaUBKTNV-1" source="WIyWlLk6GJQsqaUBKTNV-10" target="WIyWlLk6GJQsqaUBKTNV-12" edge="1">
          <mxGeometry y="10" relative="1" as="geometry">
            <mxPoint as="offset" />
          </mxGeometry>
        </mxCell>
        <mxCell id="WIyWlLk6GJQsqaUBKTNV-10" value="digitalRead(pin 12)&lt;div&gt;== HIGH&lt;/div&gt;" style="rhombus;whiteSpace=wrap;html=1;shadow=0;fontFamily=Helvetica;fontSize=12;align=center;strokeWidth=1;spacing=6;spacingTop=-4;" parent="WIyWlLk6GJQsqaUBKTNV-1" vertex="1">
          <mxGeometry x="150.01" y="300" width="150" height="80" as="geometry" />
        </mxCell>
        <mxCell id="ev5XQa3KlGmRPrC_pve0-12" value="" style="edgeStyle=orthogonalEdgeStyle;rounded=0;orthogonalLoop=1;jettySize=auto;html=1;" edge="1" parent="WIyWlLk6GJQsqaUBKTNV-1" source="WIyWlLk6GJQsqaUBKTNV-11" target="ev5XQa3KlGmRPrC_pve0-11">
          <mxGeometry relative="1" as="geometry" />
        </mxCell>
        <mxCell id="WIyWlLk6GJQsqaUBKTNV-11" value="wcount = wcount-1" style="rounded=1;whiteSpace=wrap;html=1;fontSize=12;glass=0;strokeWidth=1;shadow=0;" parent="WIyWlLk6GJQsqaUBKTNV-1" vertex="1">
          <mxGeometry x="165" y="410" width="120" height="40" as="geometry" />
        </mxCell>
        <mxCell id="ev5XQa3KlGmRPrC_pve0-9" style="edgeStyle=orthogonalEdgeStyle;rounded=0;orthogonalLoop=1;jettySize=auto;html=1;entryX=0.333;entryY=-0.027;entryDx=0;entryDy=0;entryPerimeter=0;exitX=1;exitY=0.5;exitDx=0;exitDy=0;" edge="1" parent="WIyWlLk6GJQsqaUBKTNV-1" source="WIyWlLk6GJQsqaUBKTNV-12">
          <mxGeometry relative="1" as="geometry">
            <mxPoint x="460" y="335.88" as="sourcePoint" />
            <mxPoint x="579.96" y="948.9200000000001" as="targetPoint" />
          </mxGeometry>
        </mxCell>
        <mxCell id="WIyWlLk6GJQsqaUBKTNV-12" value="run Wifi Radio" style="rounded=1;whiteSpace=wrap;html=1;fontSize=12;glass=0;strokeWidth=1;shadow=0;" parent="WIyWlLk6GJQsqaUBKTNV-1" vertex="1">
          <mxGeometry x="364" y="320" width="100" height="40" as="geometry" />
        </mxCell>
        <mxCell id="ev5XQa3KlGmRPrC_pve0-7" value="" style="edgeStyle=orthogonalEdgeStyle;rounded=0;orthogonalLoop=1;jettySize=auto;html=1;" edge="1" parent="WIyWlLk6GJQsqaUBKTNV-1" source="ev5XQa3KlGmRPrC_pve0-4" target="ev5XQa3KlGmRPrC_pve0-6">
          <mxGeometry relative="1" as="geometry" />
        </mxCell>
        <mxCell id="ev5XQa3KlGmRPrC_pve0-4" value="wcount = 10" style="rounded=0;whiteSpace=wrap;html=1;" vertex="1" parent="WIyWlLk6GJQsqaUBKTNV-1">
          <mxGeometry x="190" y="170" width="70" height="30" as="geometry" />
        </mxCell>
        <mxCell id="ev5XQa3KlGmRPrC_pve0-8" value="" style="edgeStyle=orthogonalEdgeStyle;rounded=0;orthogonalLoop=1;jettySize=auto;html=1;" edge="1" parent="WIyWlLk6GJQsqaUBKTNV-1" source="ev5XQa3KlGmRPrC_pve0-6" target="WIyWlLk6GJQsqaUBKTNV-10">
          <mxGeometry relative="1" as="geometry" />
        </mxCell>
        <mxCell id="ev5XQa3KlGmRPrC_pve0-6" value="delay(100)" style="rounded=0;whiteSpace=wrap;html=1;" vertex="1" parent="WIyWlLk6GJQsqaUBKTNV-1">
          <mxGeometry x="190" y="250" width="70" height="30" as="geometry" />
        </mxCell>
        <mxCell id="ev5XQa3KlGmRPrC_pve0-10" value="Yes" style="text;html=1;align=center;verticalAlign=middle;resizable=0;points=[];autosize=1;strokeColor=none;fillColor=none;" vertex="1" parent="WIyWlLk6GJQsqaUBKTNV-1">
          <mxGeometry x="220" y="140" width="40" height="30" as="geometry" />
        </mxCell>
        <mxCell id="ev5XQa3KlGmRPrC_pve0-18" value="" style="edgeStyle=orthogonalEdgeStyle;rounded=0;orthogonalLoop=1;jettySize=auto;html=1;" edge="1" parent="WIyWlLk6GJQsqaUBKTNV-1" source="ev5XQa3KlGmRPrC_pve0-11" target="ev5XQa3KlGmRPrC_pve0-17">
          <mxGeometry relative="1" as="geometry" />
        </mxCell>
        <mxCell id="ev5XQa3KlGmRPrC_pve0-50" style="edgeStyle=orthogonalEdgeStyle;rounded=0;orthogonalLoop=1;jettySize=auto;html=1;exitX=0;exitY=0.5;exitDx=0;exitDy=0;" edge="1" parent="WIyWlLk6GJQsqaUBKTNV-1" source="ev5XQa3KlGmRPrC_pve0-11">
          <mxGeometry relative="1" as="geometry">
            <mxPoint x="120" y="220" as="targetPoint" />
          </mxGeometry>
        </mxCell>
        <mxCell id="ev5XQa3KlGmRPrC_pve0-11" value="wcount &amp;lt; 0" style="rhombus;whiteSpace=wrap;html=1;shadow=0;fontFamily=Helvetica;fontSize=12;align=center;strokeWidth=1;spacing=6;spacingTop=-4;" vertex="1" parent="WIyWlLk6GJQsqaUBKTNV-1">
          <mxGeometry x="163.75" y="480" width="122.5" height="50" as="geometry" />
        </mxCell>
        <mxCell id="ev5XQa3KlGmRPrC_pve0-15" value="" style="endArrow=classic;html=1;rounded=0;" edge="1" parent="WIyWlLk6GJQsqaUBKTNV-1">
          <mxGeometry width="50" height="50" relative="1" as="geometry">
            <mxPoint x="120" y="220" as="sourcePoint" />
            <mxPoint x="230" y="220" as="targetPoint" />
          </mxGeometry>
        </mxCell>
        <mxCell id="ev5XQa3KlGmRPrC_pve0-16" value="No" style="text;html=1;align=center;verticalAlign=middle;resizable=0;points=[];autosize=1;strokeColor=none;fillColor=none;" vertex="1" parent="WIyWlLk6GJQsqaUBKTNV-1">
          <mxGeometry x="123.75" y="470" width="40" height="30" as="geometry" />
        </mxCell>
        <mxCell id="ev5XQa3KlGmRPrC_pve0-20" value="" style="edgeStyle=orthogonalEdgeStyle;rounded=0;orthogonalLoop=1;jettySize=auto;html=1;" edge="1" parent="WIyWlLk6GJQsqaUBKTNV-1" source="ev5XQa3KlGmRPrC_pve0-17" target="ev5XQa3KlGmRPrC_pve0-19">
          <mxGeometry relative="1" as="geometry" />
        </mxCell>
        <mxCell id="ev5XQa3KlGmRPrC_pve0-17" value="wcount = 10" style="rounded=1;whiteSpace=wrap;html=1;fontSize=12;glass=0;strokeWidth=1;shadow=0;" vertex="1" parent="WIyWlLk6GJQsqaUBKTNV-1">
          <mxGeometry x="177.5" y="548" width="95" height="40" as="geometry" />
        </mxCell>
        <mxCell id="ev5XQa3KlGmRPrC_pve0-22" value="" style="edgeStyle=orthogonalEdgeStyle;rounded=0;orthogonalLoop=1;jettySize=auto;html=1;" edge="1" parent="WIyWlLk6GJQsqaUBKTNV-1" source="ev5XQa3KlGmRPrC_pve0-19" target="ev5XQa3KlGmRPrC_pve0-21">
          <mxGeometry relative="1" as="geometry" />
        </mxCell>
        <mxCell id="ev5XQa3KlGmRPrC_pve0-19" value="delay(100)" style="rounded=0;whiteSpace=wrap;html=1;" vertex="1" parent="WIyWlLk6GJQsqaUBKTNV-1">
          <mxGeometry x="190" y="620" width="70" height="30" as="geometry" />
        </mxCell>
        <mxCell id="ev5XQa3KlGmRPrC_pve0-24" value="" style="edgeStyle=orthogonalEdgeStyle;rounded=0;orthogonalLoop=1;jettySize=auto;html=1;" edge="1" parent="WIyWlLk6GJQsqaUBKTNV-1" source="ev5XQa3KlGmRPrC_pve0-21" target="ev5XQa3KlGmRPrC_pve0-23">
          <mxGeometry relative="1" as="geometry" />
        </mxCell>
        <mxCell id="ev5XQa3KlGmRPrC_pve0-31" value="" style="edgeStyle=orthogonalEdgeStyle;rounded=0;orthogonalLoop=1;jettySize=auto;html=1;" edge="1" parent="WIyWlLk6GJQsqaUBKTNV-1" source="ev5XQa3KlGmRPrC_pve0-21" target="ev5XQa3KlGmRPrC_pve0-30">
          <mxGeometry relative="1" as="geometry" />
        </mxCell>
        <mxCell id="ev5XQa3KlGmRPrC_pve0-21" value="digitalRead(pin 12)&lt;div&gt;== HIGH&lt;/div&gt;" style="rhombus;whiteSpace=wrap;html=1;shadow=0;fontFamily=Helvetica;fontSize=12;align=center;strokeWidth=1;spacing=6;spacingTop=-4;" vertex="1" parent="WIyWlLk6GJQsqaUBKTNV-1">
          <mxGeometry x="143.13" y="680" width="163.75" height="70" as="geometry" />
        </mxCell>
        <mxCell id="ev5XQa3KlGmRPrC_pve0-23" value="connect to Wifi" style="rounded=1;whiteSpace=wrap;html=1;fontSize=12;glass=0;strokeWidth=1;shadow=0;" vertex="1" parent="WIyWlLk6GJQsqaUBKTNV-1">
          <mxGeometry x="370" y="695" width="100" height="40" as="geometry" />
        </mxCell>
        <mxCell id="ev5XQa3KlGmRPrC_pve0-25" style="edgeStyle=orthogonalEdgeStyle;rounded=0;orthogonalLoop=1;jettySize=auto;html=1;entryX=0.195;entryY=0.008;entryDx=0;entryDy=0;entryPerimeter=0;" edge="1" parent="WIyWlLk6GJQsqaUBKTNV-1">
          <mxGeometry relative="1" as="geometry">
            <mxPoint x="480" y="720" as="sourcePoint" />
            <mxPoint x="563.4000000000001" y="950.3199999999999" as="targetPoint" />
          </mxGeometry>
        </mxCell>
        <mxCell id="ev5XQa3KlGmRPrC_pve0-27" value="Yes" style="text;html=1;align=center;verticalAlign=middle;resizable=0;points=[];autosize=1;strokeColor=none;fillColor=none;" vertex="1" parent="WIyWlLk6GJQsqaUBKTNV-1">
          <mxGeometry x="306.88" y="690" width="40" height="30" as="geometry" />
        </mxCell>
        <mxCell id="ev5XQa3KlGmRPrC_pve0-28" value="Button release" style="text;html=1;align=center;verticalAlign=middle;resizable=0;points=[];autosize=1;strokeColor=none;fillColor=none;" vertex="1" parent="WIyWlLk6GJQsqaUBKTNV-1">
          <mxGeometry x="276.88" y="720" width="100" height="30" as="geometry" />
        </mxCell>
        <mxCell id="ev5XQa3KlGmRPrC_pve0-34" value="" style="edgeStyle=orthogonalEdgeStyle;rounded=0;orthogonalLoop=1;jettySize=auto;html=1;" edge="1" parent="WIyWlLk6GJQsqaUBKTNV-1" source="ev5XQa3KlGmRPrC_pve0-30" target="ev5XQa3KlGmRPrC_pve0-33">
          <mxGeometry relative="1" as="geometry" />
        </mxCell>
        <mxCell id="ev5XQa3KlGmRPrC_pve0-30" value="wcount = wcount-1" style="rounded=1;whiteSpace=wrap;html=1;fontSize=12;glass=0;strokeWidth=1;shadow=0;" vertex="1" parent="WIyWlLk6GJQsqaUBKTNV-1">
          <mxGeometry x="165.01" y="780" width="120" height="40" as="geometry" />
        </mxCell>
        <mxCell id="ev5XQa3KlGmRPrC_pve0-32" value="No" style="text;html=1;align=center;verticalAlign=middle;resizable=0;points=[];autosize=1;strokeColor=none;fillColor=none;" vertex="1" parent="WIyWlLk6GJQsqaUBKTNV-1">
          <mxGeometry x="220" y="750" width="40" height="30" as="geometry" />
        </mxCell>
        <mxCell id="ev5XQa3KlGmRPrC_pve0-36" value="" style="edgeStyle=orthogonalEdgeStyle;rounded=0;orthogonalLoop=1;jettySize=auto;html=1;" edge="1" parent="WIyWlLk6GJQsqaUBKTNV-1" source="ev5XQa3KlGmRPrC_pve0-33" target="ev5XQa3KlGmRPrC_pve0-35">
          <mxGeometry relative="1" as="geometry" />
        </mxCell>
        <mxCell id="ev5XQa3KlGmRPrC_pve0-48" style="edgeStyle=orthogonalEdgeStyle;rounded=0;orthogonalLoop=1;jettySize=auto;html=1;exitX=0;exitY=0.5;exitDx=0;exitDy=0;" edge="1" parent="WIyWlLk6GJQsqaUBKTNV-1" source="ev5XQa3KlGmRPrC_pve0-33">
          <mxGeometry relative="1" as="geometry">
            <mxPoint x="100" y="600" as="targetPoint" />
          </mxGeometry>
        </mxCell>
        <mxCell id="ev5XQa3KlGmRPrC_pve0-33" value="wcount &amp;lt; 0" style="rhombus;whiteSpace=wrap;html=1;shadow=0;fontFamily=Helvetica;fontSize=12;align=center;strokeWidth=1;spacing=6;spacingTop=-4;" vertex="1" parent="WIyWlLk6GJQsqaUBKTNV-1">
          <mxGeometry x="163.75" y="840" width="122.5" height="50" as="geometry" />
        </mxCell>
        <mxCell id="ev5XQa3KlGmRPrC_pve0-35" value="play File opearion&amp;nbsp;&lt;div&gt;(uploading/replacing frequencies txt fille)&lt;/div&gt;" style="rounded=1;whiteSpace=wrap;html=1;fontSize=12;glass=0;strokeWidth=1;shadow=0;" vertex="1" parent="WIyWlLk6GJQsqaUBKTNV-1">
          <mxGeometry x="370" y="827.5" width="126" height="75" as="geometry" />
        </mxCell>
        <mxCell id="ev5XQa3KlGmRPrC_pve0-37" value="Yes" style="text;html=1;align=center;verticalAlign=middle;resizable=0;points=[];autosize=1;strokeColor=none;fillColor=none;" vertex="1" parent="WIyWlLk6GJQsqaUBKTNV-1">
          <mxGeometry x="300" y="838" width="40" height="30" as="geometry" />
        </mxCell>
        <mxCell id="ev5XQa3KlGmRPrC_pve0-39" value="" style="endArrow=classic;html=1;rounded=0;" edge="1" parent="WIyWlLk6GJQsqaUBKTNV-1">
          <mxGeometry width="50" height="50" relative="1" as="geometry">
            <mxPoint x="100" y="600" as="sourcePoint" />
            <mxPoint x="230" y="600" as="targetPoint" />
          </mxGeometry>
        </mxCell>
        <mxCell id="ev5XQa3KlGmRPrC_pve0-40" value="No" style="text;html=1;align=center;verticalAlign=middle;resizable=0;points=[];autosize=1;strokeColor=none;fillColor=none;" vertex="1" parent="WIyWlLk6GJQsqaUBKTNV-1">
          <mxGeometry x="125" y="838" width="40" height="30" as="geometry" />
        </mxCell>
        <mxCell id="ev5XQa3KlGmRPrC_pve0-41" style="edgeStyle=orthogonalEdgeStyle;rounded=0;orthogonalLoop=1;jettySize=auto;html=1;entryX=0.049;entryY=0;entryDx=0;entryDy=0;entryPerimeter=0;" edge="1" parent="WIyWlLk6GJQsqaUBKTNV-1" source="ev5XQa3KlGmRPrC_pve0-35">
          <mxGeometry relative="1" as="geometry">
            <mxPoint x="545.8800000000001" y="950" as="targetPoint" />
          </mxGeometry>
        </mxCell>
        <mxCell id="ev5XQa3KlGmRPrC_pve0-51" style="edgeStyle=orthogonalEdgeStyle;rounded=0;orthogonalLoop=1;jettySize=auto;html=1;" edge="1" parent="WIyWlLk6GJQsqaUBKTNV-1">
          <mxGeometry relative="1" as="geometry">
            <mxPoint x="40" y="40" as="targetPoint" />
            <mxPoint x="346.8800000000001" y="1125" as="sourcePoint" />
          </mxGeometry>
        </mxCell>
        <mxCell id="ev5XQa3KlGmRPrC_pve0-52" value="" style="endArrow=classic;html=1;rounded=0;entryX=0;entryY=0.75;entryDx=0;entryDy=0;" edge="1" parent="WIyWlLk6GJQsqaUBKTNV-1" target="WIyWlLk6GJQsqaUBKTNV-3">
          <mxGeometry width="50" height="50" relative="1" as="geometry">
            <mxPoint x="40" y="40" as="sourcePoint" />
            <mxPoint x="190" y="170" as="targetPoint" />
          </mxGeometry>
        </mxCell>
        <mxCell id="ev5XQa3KlGmRPrC_pve0-57" value="" style="edgeStyle=orthogonalEdgeStyle;rounded=0;orthogonalLoop=1;jettySize=auto;html=1;" edge="1" parent="WIyWlLk6GJQsqaUBKTNV-1" source="ev5XQa3KlGmRPrC_pve0-58" target="ev5XQa3KlGmRPrC_pve0-60">
          <mxGeometry relative="1" as="geometry" />
        </mxCell>
        <mxCell id="ev5XQa3KlGmRPrC_pve0-58" value="Parser file &lt;b&gt;Prodnum.txt&lt;/b&gt;" style="rounded=1;whiteSpace=wrap;html=1;fontSize=12;glass=0;strokeWidth=1;shadow=0;" vertex="1" parent="WIyWlLk6GJQsqaUBKTNV-1">
          <mxGeometry x="540" y="950" width="120" height="40" as="geometry" />
        </mxCell>
        <mxCell id="ev5XQa3KlGmRPrC_pve0-59" value="" style="edgeStyle=orthogonalEdgeStyle;rounded=0;orthogonalLoop=1;jettySize=auto;html=1;" edge="1" parent="WIyWlLk6GJQsqaUBKTNV-1" source="ev5XQa3KlGmRPrC_pve0-60" target="ev5XQa3KlGmRPrC_pve0-62">
          <mxGeometry relative="1" as="geometry" />
        </mxCell>
        <mxCell id="ev5XQa3KlGmRPrC_pve0-60" value="Parser file file &lt;b&gt;FMfrequencies.txt&lt;/b&gt;" style="rounded=1;whiteSpace=wrap;html=1;fontSize=12;glass=0;strokeWidth=1;shadow=0;" vertex="1" parent="WIyWlLk6GJQsqaUBKTNV-1">
          <mxGeometry x="540" y="1020" width="120" height="40" as="geometry" />
        </mxCell>
        <mxCell id="ev5XQa3KlGmRPrC_pve0-61" value="" style="edgeStyle=orthogonalEdgeStyle;rounded=0;orthogonalLoop=1;jettySize=auto;html=1;" edge="1" parent="WIyWlLk6GJQsqaUBKTNV-1" source="ev5XQa3KlGmRPrC_pve0-62" target="ev5XQa3KlGmRPrC_pve0-63">
          <mxGeometry relative="1" as="geometry" />
        </mxCell>
        <mxCell id="ev5XQa3KlGmRPrC_pve0-62" value="running existing code here" style="rounded=1;whiteSpace=wrap;html=1;fontSize=12;glass=0;strokeWidth=1;shadow=0;" vertex="1" parent="WIyWlLk6GJQsqaUBKTNV-1">
          <mxGeometry x="540" y="1090" width="120" height="70" as="geometry" />
        </mxCell>
        <mxCell id="ev5XQa3KlGmRPrC_pve0-63" value="Button 12 is pressed" style="rhombus;whiteSpace=wrap;html=1;" vertex="1" parent="WIyWlLk6GJQsqaUBKTNV-1">
          <mxGeometry x="346.88" y="1085" width="106.88" height="80" as="geometry" />
        </mxCell>
        <mxCell id="ev5XQa3KlGmRPrC_pve0-64" value="ESP8266 restart" style="text;html=1;align=center;verticalAlign=middle;resizable=0;points=[];autosize=1;strokeColor=none;fillColor=none;" vertex="1" parent="WIyWlLk6GJQsqaUBKTNV-1">
          <mxGeometry x="236.88" y="1090" width="110" height="30" as="geometry" />
        </mxCell>
        <mxCell id="ev5XQa3KlGmRPrC_pve0-68" value="Yes" style="text;html=1;align=center;verticalAlign=middle;resizable=0;points=[];autosize=1;strokeColor=none;fillColor=none;" vertex="1" parent="WIyWlLk6GJQsqaUBKTNV-1">
          <mxGeometry x="220" y="518" width="40" height="30" as="geometry" />
        </mxCell>
        <mxCell id="ev5XQa3KlGmRPrC_pve0-69" value="Button release" style="text;html=1;align=center;verticalAlign=middle;resizable=0;points=[];autosize=1;strokeColor=none;fillColor=none;" vertex="1" parent="WIyWlLk6GJQsqaUBKTNV-1">
          <mxGeometry x="270" y="348" width="100" height="30" as="geometry" />
        </mxCell>
      </root>
    </mxGraphModel>
  </diagram>
</mxfile>
